STARTFONT 2.1
FONT -FontForge-Impact-Book-R-Normal--21-110-144-144-P-98-ISO10646-1
SIZE 11 144 144
FONTBOUNDINGBOX 18 27 -1 -6
COMMENT "Generated by fontforge, http://fontforge.sourceforge.net"
COMMENT "Digitized data copyright (C) 1991-1996 The Monotype Corporation. All rights reserved. Impact is a trademark of Stephenson Blake (Holdings) Ltd."
STARTPROPERTIES 39
FOUNDRY "FontForge"
FAMILY_NAME "Impact"
WEIGHT_NAME "Book"
SLANT "R"
SETWIDTH_NAME "Normal"
ADD_STYLE_NAME ""
PIXEL_SIZE 21
POINT_SIZE 110
RESOLUTION_X 144
RESOLUTION_Y 144
SPACING "P"
AVERAGE_WIDTH 98
CHARSET_REGISTRY "ISO10646"
CHARSET_ENCODING "1"
FONTNAME_REGISTRY ""
CHARSET_COLLECTIONS "ISO8859-2 ISO8859-9 ISO8859-4 ISO10646-1"
FONT_NAME "Impact"
FACE_NAME "Impact"
COPYRIGHT "Digitized data copyright (C) 1991-1996 The Monotype Corporation. All rights reserved. Impact is a trademark of Stephenson Blake (Holdings) Ltd."
FONT_VERSION "2.35"
FONT_ASCENT 17
FONT_DESCENT 4
UNDERLINE_POSITION -3
UNDERLINE_THICKNESS 2
X_HEIGHT 13
CAP_HEIGHT 16
RAW_ASCENT 799
RAW_DESCENT 200
NORM_SPACE 4
RELATIVE_WEIGHT 40
RELATIVE_SETWIDTH 30
SUPERSCRIPT_X 0
SUPERSCRIPT_Y 8
SUPERSCRIPT_SIZE 11
SUBSCRIPT_X 0
SUBSCRIPT_Y 0
SUBSCRIPT_SIZE 11
AVG_LOWERCASE_WIDTH 98
AVG_UPPERCASE_WIDTH 103
ENDPROPERTIES
CHARS 287
STARTCHAR space
ENCODING 32
SWIDTH 176 0
DWIDTH 4 0
BBX 1 1 0 0
BITMAP
00
ENDCHAR
STARTCHAR exclam
ENCODING 33
SWIDTH 270 0
DWIDTH 6 0
BBX 3 17 1 0
BITMAP
E0
E0
E0
E0
E0
E0
E0
E0
E0
E0
E0
E0
E0
00
E0
E0
E0
ENDCHAR
STARTCHAR quotedbl
ENCODING 34
SWIDTH 369 0
DWIDTH 8 0
BBX 7 5 0 12
BITMAP
EE
EE
EE
EE
44
ENDCHAR
STARTCHAR numbersign
ENCODING 35
SWIDTH 626 0
DWIDTH 13 0
BBX 13 15 0 0
BITMAP
0C30
0C30
1C70
1860
FFF8
FFF8
1860
38E0
30C0
FFF8
FFF8
30C0
6180
6180
6180
ENDCHAR
STARTCHAR dollar
ENCODING 36
SWIDTH 547 0
DWIDTH 12 0
BBX 9 20 1 -2
BITMAP
1800
3E00
7F00
E380
E380
E380
F000
FC00
7E00
3F00
1F80
0780
E380
E380
E380
E380
7F00
3E00
1800
1800
ENDCHAR
STARTCHAR percent
ENCODING 37
SWIDTH 692 0
DWIDTH 15 0
BBX 15 17 0 0
BITMAP
7010
D810
D820
D820
D840
D840
D880
D880
711C
0236
0236
0436
0436
0836
0836
1036
101C
ENDCHAR
STARTCHAR ampersand
ENCODING 38
SWIDTH 576 0
DWIDTH 12 0
BBX 12 14 0 0
BITMAP
1E00
3F00
7700
7700
7700
3E00
1E00
7F00
FFF0
E7F0
E7E0
FFE0
7FE0
3DF0
ENDCHAR
STARTCHAR quotesingle
ENCODING 39
SWIDTH 185 0
DWIDTH 4 0
BBX 3 5 0 12
BITMAP
E0
E0
E0
E0
40
ENDCHAR
STARTCHAR parenleft
ENCODING 40
SWIDTH 313 0
DWIDTH 7 0
BBX 5 17 1 0
BITMAP
78
F8
E0
E0
E0
E0
E0
E0
E0
E0
E0
E0
E0
E0
E0
F8
78
ENDCHAR
STARTCHAR parenright
ENCODING 41
SWIDTH 313 0
DWIDTH 7 0
BBX 5 17 1 0
BITMAP
F0
F8
38
38
38
38
38
38
38
38
38
38
38
38
38
F8
F0
ENDCHAR
STARTCHAR asterisk
ENCODING 42
SWIDTH 280 0
DWIDTH 6 0
BBX 5 5 0 12
BITMAP
20
F8
F8
70
50
ENDCHAR
STARTCHAR plus
ENCODING 43
SWIDTH 533 0
DWIDTH 11 0
BBX 11 11 0 3
BITMAP
0E00
0E00
0E00
0E00
FFE0
FFE0
FFE0
0E00
0E00
0E00
0E00
ENDCHAR
STARTCHAR comma
ENCODING 44
SWIDTH 167 0
DWIDTH 4 0
BBX 3 5 0 -2
BITMAP
E0
E0
E0
60
80
ENDCHAR
STARTCHAR hyphen
ENCODING 45
SWIDTH 294 0
DWIDTH 6 0
BBX 6 3 0 5
BITMAP
FC
FC
FC
ENDCHAR
STARTCHAR period
ENCODING 46
SWIDTH 184 0
DWIDTH 4 0
BBX 3 3 0 0
BITMAP
E0
E0
E0
ENDCHAR
STARTCHAR slash
ENCODING 47
SWIDTH 395 0
DWIDTH 8 0
BBX 6 17 1 0
BITMAP
1C
1C
1C
1C
38
38
38
38
78
70
70
70
70
E0
E0
E0
E0
ENDCHAR
STARTCHAR zero
ENCODING 48
SWIDTH 536 0
DWIDTH 11 0
BBX 8 17 1 0
BITMAP
3C
7E
E7
E7
E7
E7
E7
E7
E7
E7
E7
E7
E7
E7
E7
7E
3C
ENDCHAR
STARTCHAR one
ENCODING 49
SWIDTH 380 0
DWIDTH 8 0
BBX 6 17 0 0
BITMAP
0C
1C
FC
FC
1C
1C
1C
1C
1C
1C
1C
1C
1C
1C
1C
1C
1C
ENDCHAR
STARTCHAR two
ENCODING 50
SWIDTH 501 0
DWIDTH 11 0
BBX 8 17 1 0
BITMAP
3C
7E
E7
E7
E7
E7
0F
0E
1E
1E
1C
38
38
70
70
FF
FF
ENDCHAR
STARTCHAR three
ENCODING 51
SWIDTH 530 0
DWIDTH 11 0
BBX 8 17 1 0
BITMAP
7C
FE
E7
E7
E7
E7
07
3E
3F
07
E7
E7
E7
E7
E7
7E
3C
ENDCHAR
STARTCHAR four
ENCODING 52
SWIDTH 499 0
DWIDTH 10 0
BBX 9 17 0 0
BITMAP
1F00
1F00
1F00
3F00
3F00
3700
7700
7700
6700
E700
E700
FF80
FF80
FF80
0700
0700
0700
ENDCHAR
STARTCHAR five
ENCODING 53
SWIDTH 536 0
DWIDTH 11 0
BBX 8 17 1 0
BITMAP
FF
FF
E0
E0
EE
FF
E7
E7
07
07
E7
E7
E7
E7
E7
7E
3C
ENDCHAR
STARTCHAR six
ENCODING 54
SWIDTH 541 0
DWIDTH 11 0
BBX 8 17 1 0
BITMAP
3C
7E
E7
E7
E0
FE
FF
E7
E7
E7
E7
E7
E7
E7
E7
7E
3C
ENDCHAR
STARTCHAR seven
ENCODING 55
SWIDTH 391 0
DWIDTH 8 0
BBX 7 17 0 0
BITMAP
FE
FE
0E
0E
0E
0C
1C
1C
1C
1C
18
38
38
38
38
70
70
ENDCHAR
STARTCHAR eight
ENCODING 56
SWIDTH 534 0
DWIDTH 11 0
BBX 8 17 1 0
BITMAP
3C
7E
E7
E7
E7
E7
E7
7E
FF
E7
E7
E7
E7
E7
E7
7E
3C
ENDCHAR
STARTCHAR nine
ENCODING 57
SWIDTH 541 0
DWIDTH 11 0
BBX 8 17 1 0
BITMAP
3C
7E
E7
E7
E7
E7
E7
E7
E7
E7
FF
7F
07
E7
E7
7E
3C
ENDCHAR
STARTCHAR colon
ENCODING 58
SWIDTH 202 0
DWIDTH 4 0
BBX 3 11 1 0
BITMAP
E0
E0
E0
00
00
00
00
00
E0
E0
E0
ENDCHAR
STARTCHAR semicolon
ENCODING 59
SWIDTH 202 0
DWIDTH 4 0
BBX 3 13 1 -2
BITMAP
E0
E0
E0
00
00
00
00
00
E0
E0
E0
60
80
ENDCHAR
STARTCHAR less
ENCODING 60
SWIDTH 533 0
DWIDTH 11 0
BBX 9 11 1 3
BITMAP
0080
0380
1F80
7F00
FC00
E000
FC00
7F00
1F80
0380
0080
ENDCHAR
STARTCHAR equal
ENCODING 61
SWIDTH 533 0
DWIDTH 11 0
BBX 9 7 1 5
BITMAP
FF80
FF80
FF80
0000
FF80
FF80
FF80
ENDCHAR
STARTCHAR greater
ENCODING 62
SWIDTH 533 0
DWIDTH 11 0
BBX 9 11 1 3
BITMAP
8000
E000
FC00
7F00
1F80
0380
1F80
7F00
FC00
E000
8000
ENDCHAR
STARTCHAR question
ENCODING 63
SWIDTH 524 0
DWIDTH 11 0
BBX 10 17 0 0
BITMAP
3F00
7F80
FF80
E1C0
E1C0
E1C0
01C0
01C0
E1C0
FFC0
FF80
EF00
E000
0000
E000
E000
E000
ENDCHAR
STARTCHAR at
ENCODING 64
SWIDTH 774 0
DWIDTH 16 0
BBX 16 18 0 -1
BITMAP
07F0
0FF8
3C1C
33B6
67F7
6C73
CC73
D863
D863
D863
D866
DCEE
EFFC
6778
7007
3C0E
1FF8
07E0
ENDCHAR
STARTCHAR A
ENCODING 65
SWIDTH 507 0
DWIDTH 10 0
BBX 9 17 0 0
BITMAP
3E00
3E00
3E00
3600
3600
3600
7700
7700
7700
6300
6300
7F00
7F00
FF80
E380
E380
E380
ENDCHAR
STARTCHAR B
ENCODING 66
SWIDTH 552 0
DWIDTH 12 0
BBX 9 17 1 0
BITMAP
FE00
FF00
FF80
E380
E380
E380
FF80
FE00
FF80
E380
E380
E380
E380
E380
FF80
FF80
FF00
ENDCHAR
STARTCHAR C
ENCODING 67
SWIDTH 553 0
DWIDTH 12 0
BBX 9 17 1 0
BITMAP
3E00
7F00
FF80
E380
E380
E380
E380
E000
E000
E380
E380
E380
E380
E380
FF00
7F00
3E00
ENDCHAR
STARTCHAR D
ENCODING 68
SWIDTH 552 0
DWIDTH 12 0
BBX 9 17 1 0
BITMAP
FE00
FF00
FF80
E380
E380
E380
E380
E380
E380
E380
E380
E380
E380
E380
FF80
FF80
FF00
ENDCHAR
STARTCHAR E
ENCODING 69
SWIDTH 415 0
DWIDTH 9 0
BBX 7 17 1 0
BITMAP
FC
FC
FC
E0
E0
E0
E0
FC
FC
FC
E0
E0
E0
E0
FE
FE
FE
ENDCHAR
STARTCHAR F
ENCODING 70
SWIDTH 397 0
DWIDTH 8 0
BBX 6 17 1 0
BITMAP
FC
FC
FC
E0
E0
E0
E0
FC
FC
FC
E0
E0
E0
E0
E0
E0
E0
ENDCHAR
STARTCHAR G
ENCODING 71
SWIDTH 551 0
DWIDTH 12 0
BBX 9 17 1 0
BITMAP
3E00
7F00
FF80
E380
E380
E380
E000
E000
E780
E780
E380
E380
E380
E380
FF80
7F80
3E80
ENDCHAR
STARTCHAR H
ENCODING 72
SWIDTH 555 0
DWIDTH 12 0
BBX 9 17 1 0
BITMAP
E380
E380
E380
E380
E380
E380
E380
FF80
FF80
FF80
E380
E380
E380
E380
E380
E380
E380
ENDCHAR
STARTCHAR I
ENCODING 73
SWIDTH 288 0
DWIDTH 6 0
BBX 3 17 1 0
BITMAP
E0
E0
E0
E0
E0
E0
E0
E0
E0
E0
E0
E0
E0
E0
E0
E0
E0
ENDCHAR
STARTCHAR J
ENCODING 74
SWIDTH 331 0
DWIDTH 7 0
BBX 5 17 0 0
BITMAP
38
38
38
38
38
38
38
38
38
38
38
38
38
38
F8
F8
F0
ENDCHAR
STARTCHAR K
ENCODING 75
SWIDTH 536 0
DWIDTH 11 0
BBX 9 17 1 0
BITMAP
E380
E380
E700
E700
EE00
EE00
FC00
FC00
F800
FC00
FC00
EE00
EE00
E700
E700
E380
E380
ENDCHAR
STARTCHAR L
ENCODING 76
SWIDTH 380 0
DWIDTH 8 0
BBX 6 17 1 0
BITMAP
E0
E0
E0
E0
E0
E0
E0
E0
E0
E0
E0
E0
E0
E0
FC
FC
FC
ENDCHAR
STARTCHAR M
ENCODING 77
SWIDTH 716 0
DWIDTH 15 0
BBX 12 17 1 0
BITMAP
F8F0
F8F0
F8F0
F9F0
FDF0
FDF0
ED70
ED70
EF70
EF70
EF70
EF70
EF70
E670
E670
E670
E670
ENDCHAR
STARTCHAR N
ENCODING 78
SWIDTH 541 0
DWIDTH 11 0
BBX 8 17 1 0
BITMAP
E7
E7
E7
F7
F7
F7
F7
F7
FF
EF
EF
EF
EF
EF
E7
E7
E7
ENDCHAR
STARTCHAR O
ENCODING 79
SWIDTH 546 0
DWIDTH 11 0
BBX 8 17 1 0
BITMAP
3C
7E
FF
E7
E7
E7
E7
E7
E7
E7
E7
E7
E7
E7
FF
7E
3C
ENDCHAR
STARTCHAR P
ENCODING 80
SWIDTH 501 0
DWIDTH 11 0
BBX 9 17 1 0
BITMAP
FE00
FF80
FF80
E380
E380
E380
E380
FF80
FF80
FE00
E000
E000
E000
E000
E000
E000
E000
ENDCHAR
STARTCHAR Q
ENCODING 81
SWIDTH 546 0
DWIDTH 11 0
BBX 8 19 1 -2
BITMAP
3C
7E
FF
E7
E7
E7
E7
E7
E7
E7
E7
E7
E7
E7
FE
78
38
0F
07
ENDCHAR
STARTCHAR R
ENCODING 82
SWIDTH 538 0
DWIDTH 11 0
BBX 8 17 1 0
BITMAP
FE
FF
FF
E7
E7
E7
FF
FC
FE
E7
E7
E7
E7
E7
E7
E7
E7
ENDCHAR
STARTCHAR S
ENCODING 83
SWIDTH 517 0
DWIDTH 11 0
BBX 10 17 0 0
BITMAP
3E00
7F00
FF80
E380
E380
E000
F800
7E00
1F00
0780
03C0
E1C0
E1C0
E1C0
FFC0
7F80
3F00
ENDCHAR
STARTCHAR T
ENCODING 84
SWIDTH 460 0
DWIDTH 10 0
BBX 9 17 0 0
BITMAP
FF80
FF80
FF80
1C00
1C00
1C00
1C00
1C00
1C00
1C00
1C00
1C00
1C00
1C00
1C00
1C00
1C00
ENDCHAR
STARTCHAR U
ENCODING 85
SWIDTH 546 0
DWIDTH 11 0
BBX 8 17 1 0
BITMAP
E7
E7
E7
E7
E7
E7
E7
E7
E7
E7
E7
E7
E7
E7
FF
7E
3C
ENDCHAR
STARTCHAR V
ENCODING 86
SWIDTH 523 0
DWIDTH 10 0
BBX 9 17 0 0
BITMAP
E380
E380
E380
E380
7700
7700
7700
7700
7700
7700
7700
3600
3600
3E00
3E00
3E00
3E00
ENDCHAR
STARTCHAR W
ENCODING 87
SWIDTH 814 0
DWIDTH 16 0
BBX 15 17 0 0
BITMAP
E38E
E38E
E38E
E38E
639C
77DC
77DC
76DC
76DC
76DC
76DC
76DC
76DC
3EF8
3C78
3C78
3C78
ENDCHAR
STARTCHAR X
ENCODING 88
SWIDTH 482 0
DWIDTH 10 0
BBX 9 17 0 0
BITMAP
E380
E380
E380
7700
7700
3600
3E00
3E00
3E00
3E00
3600
7700
7700
6300
E380
E380
E380
ENDCHAR
STARTCHAR Y
ENCODING 89
SWIDTH 473 0
DWIDTH 10 0
BBX 9 17 0 0
BITMAP
E380
E380
6300
6300
7300
3600
3600
3600
3E00
1C00
1C00
1C00
1C00
1C00
1C00
1C00
1C00
ENDCHAR
STARTCHAR Z
ENCODING 90
SWIDTH 396 0
DWIDTH 8 0
BBX 7 17 0 0
BITMAP
FE
FE
FE
0E
1C
1C
1C
38
38
38
70
70
70
E0
FE
FE
FE
ENDCHAR
STARTCHAR bracketleft
ENCODING 91
SWIDTH 282 0
DWIDTH 6 0
BBX 4 17 1 0
BITMAP
F0
F0
F0
E0
E0
E0
E0
E0
E0
E0
E0
E0
E0
E0
F0
F0
F0
ENDCHAR
STARTCHAR backslash
ENCODING 92
SWIDTH 395 0
DWIDTH 8 0
BBX 8 17 0 0
BITMAP
E0
E0
70
70
70
38
38
38
38
1C
1C
1C
0E
0E
0E
07
07
ENDCHAR
STARTCHAR bracketright
ENCODING 93
SWIDTH 282 0
DWIDTH 6 0
BBX 4 17 1 0
BITMAP
F0
F0
F0
70
70
70
70
70
70
70
70
70
70
70
F0
F0
F0
ENDCHAR
STARTCHAR asciicircum
ENCODING 94
SWIDTH 483 0
DWIDTH 10 0
BBX 9 9 1 8
BITMAP
1C00
3E00
3E00
3E00
7F00
7700
7700
F780
E380
ENDCHAR
STARTCHAR underscore
ENCODING 95
SWIDTH 552 0
DWIDTH 12 0
BBX 12 1 0 -3
BITMAP
FFF0
ENDCHAR
STARTCHAR grave
ENCODING 96
SWIDTH 333 0
DWIDTH 7 0
BBX 5 3 0 15
BITMAP
E0
70
38
ENDCHAR
STARTCHAR a
ENCODING 97
SWIDTH 503 0
DWIDTH 11 0
BBX 9 14 1 0
BITMAP
3E00
7F00
E380
E380
E380
E380
0F80
7F80
F380
E380
E380
E380
FF80
7B80
ENDCHAR
STARTCHAR b
ENCODING 98
SWIDTH 519 0
DWIDTH 11 0
BBX 9 17 1 0
BITMAP
E000
E000
E000
EF00
FF80
E380
E380
E380
E380
E380
E380
E380
E380
E380
E380
FF80
EF00
ENDCHAR
STARTCHAR c
ENCODING 99
SWIDTH 494 0
DWIDTH 10 0
BBX 8 14 1 0
BITMAP
3C
7E
E7
E7
E7
E0
E0
E0
E7
E7
E7
E7
7E
3C
ENDCHAR
STARTCHAR d
ENCODING 100
SWIDTH 519 0
DWIDTH 11 0
BBX 9 17 1 0
BITMAP
0380
0380
0380
7B80
FF80
E380
E380
E380
E380
E380
E380
E380
E380
E380
E380
FF80
7B80
ENDCHAR
STARTCHAR e
ENCODING 101
SWIDTH 511 0
DWIDTH 11 0
BBX 9 14 1 0
BITMAP
3E00
7F00
E380
E380
E380
FF80
FF80
E000
E380
E380
E380
E380
7F00
3E00
ENDCHAR
STARTCHAR f
ENCODING 102
SWIDTH 289 0
DWIDTH 6 0
BBX 6 17 0 0
BITMAP
3C
7C
60
60
FC
FC
70
70
70
70
70
70
70
70
70
70
70
ENDCHAR
STARTCHAR g
ENCODING 103
SWIDTH 518 0
DWIDTH 11 0
BBX 9 16 1 -2
BITMAP
7B80
FF80
E380
E380
E380
E380
E380
E380
E380
E380
FF80
7B80
0380
E380
FF00
7E00
ENDCHAR
STARTCHAR h
ENCODING 104
SWIDTH 523 0
DWIDTH 11 0
BBX 9 17 1 0
BITMAP
E000
E000
E000
EF00
FF80
E380
E380
E380
E380
E380
E380
E380
E380
E380
E380
E380
E380
ENDCHAR
STARTCHAR i
ENCODING 105
SWIDTH 273 0
DWIDTH 5 0
BBX 3 17 1 0
BITMAP
E0
E0
00
E0
E0
E0
E0
E0
E0
E0
E0
E0
E0
E0
E0
E0
E0
ENDCHAR
STARTCHAR j
ENCODING 106
SWIDTH 279 0
DWIDTH 5 0
BBX 4 19 0 -2
BITMAP
70
70
00
70
70
70
70
70
70
70
70
70
70
70
70
70
70
F0
E0
ENDCHAR
STARTCHAR k
ENCODING 107
SWIDTH 478 0
DWIDTH 10 0
BBX 9 17 1 0
BITMAP
E000
E000
E000
E380
E700
E600
EC00
FC00
F800
F800
FC00
EC00
EE00
E600
E700
E300
E380
ENDCHAR
STARTCHAR l
ENCODING 108
SWIDTH 273 0
DWIDTH 5 0
BBX 3 17 1 0
BITMAP
E0
E0
E0
E0
E0
E0
E0
E0
E0
E0
E0
E0
E0
E0
E0
E0
E0
ENDCHAR
STARTCHAR m
ENCODING 109
SWIDTH 770 0
DWIDTH 15 0
BBX 13 14 1 0
BITMAP
EE70
FFF8
E738
E738
E738
E738
E738
E738
E738
E738
E738
E738
E738
E738
ENDCHAR
STARTCHAR n
ENCODING 110
SWIDTH 522 0
DWIDTH 11 0
BBX 9 14 1 0
BITMAP
EF00
FF80
E380
E380
E380
E380
E380
E380
E380
E380
E380
E380
E380
E380
ENDCHAR
STARTCHAR o
ENCODING 111
SWIDTH 511 0
DWIDTH 11 0
BBX 9 14 1 0
BITMAP
3E00
7F00
E380
E380
E380
E380
E380
E380
E380
E380
E380
E380
7F00
3E00
ENDCHAR
STARTCHAR p
ENCODING 112
SWIDTH 519 0
DWIDTH 11 0
BBX 9 16 1 -2
BITMAP
EF00
FF80
E380
E380
E380
E380
E380
E380
E380
E380
E380
E380
FF80
EF00
E000
E000
ENDCHAR
STARTCHAR q
ENCODING 113
SWIDTH 518 0
DWIDTH 11 0
BBX 9 16 1 -2
BITMAP
7B80
FF80
E380
E380
E380
E380
E380
E380
E380
E380
E380
E380
FF80
7B80
0380
0380
ENDCHAR
STARTCHAR r
ENCODING 114
SWIDTH 357 0
DWIDTH 8 0
BBX 5 14 1 0
BITMAP
E8
F8
F8
F0
E0
E0
E0
E0
E0
E0
E0
E0
E0
E0
ENDCHAR
STARTCHAR s
ENCODING 115
SWIDTH 470 0
DWIDTH 10 0
BBX 8 14 1 0
BITMAP
3E
FF
E7
E7
F0
F8
7E
3F
1F
07
E7
E7
FE
7C
ENDCHAR
STARTCHAR t
ENCODING 116
SWIDTH 304 0
DWIDTH 6 0
BBX 6 15 0 0
BITMAP
70
70
FC
FC
70
70
70
70
70
70
70
70
70
7C
3C
ENDCHAR
STARTCHAR u
ENCODING 117
SWIDTH 522 0
DWIDTH 11 0
BBX 9 14 1 0
BITMAP
E380
E380
E380
E380
E380
E380
E380
E380
E380
E380
E380
E380
FF80
7B80
ENDCHAR
STARTCHAR v
ENCODING 118
SWIDTH 437 0
DWIDTH 9 0
BBX 9 14 0 0
BITMAP
E380
E380
E380
E380
6300
7700
7700
7700
7700
7700
7700
3E00
3E00
3E00
ENDCHAR
STARTCHAR w
ENCODING 119
SWIDTH 669 0
DWIDTH 13 0
BBX 13 14 0 0
BITMAP
E738
E738
E738
E738
EFB8
EFB8
6DB0
6DB0
6DB0
7DF0
7DF0
78F0
78F0
78F0
ENDCHAR
STARTCHAR x
ENCODING 120
SWIDTH 433 0
DWIDTH 9 0
BBX 9 14 0 0
BITMAP
E380
E380
6700
7700
7700
3600
3E00
3E00
3600
7700
7700
7700
E380
E380
ENDCHAR
STARTCHAR y
ENCODING 121
SWIDTH 448 0
DWIDTH 9 0
BBX 9 16 0 -2
BITMAP
E380
E380
E300
6300
7700
7700
7700
7700
7700
3700
3E00
3E00
3E00
3E00
7E00
7C00
ENDCHAR
STARTCHAR z
ENCODING 122
SWIDTH 351 0
DWIDTH 7 0
BBX 7 14 0 0
BITMAP
FE
FE
0E
1E
1C
1C
38
38
70
70
70
E0
FE
FE
ENDCHAR
STARTCHAR braceleft
ENCODING 123
SWIDTH 369 0
DWIDTH 8 0
BBX 7 20 0 -3
BITMAP
0E
1E
3E
38
38
38
38
38
70
F0
F0
70
38
38
38
38
38
3E
1E
0E
ENDCHAR
STARTCHAR bar
ENCODING 124
SWIDTH 270 0
DWIDTH 6 0
BBX 2 20 2 -3
BITMAP
C0
C0
C0
C0
C0
C0
C0
C0
C0
C0
C0
C0
C0
C0
C0
C0
C0
C0
C0
C0
ENDCHAR
STARTCHAR braceright
ENCODING 125
SWIDTH 369 0
DWIDTH 8 0
BBX 7 20 1 -3
BITMAP
E0
F0
F8
38
38
38
38
38
1C
1E
1E
1C
38
38
38
38
38
F8
F0
E0
ENDCHAR
STARTCHAR asciitilde
ENCODING 126
SWIDTH 524 0
DWIDTH 11 0
BBX 9 4 1 6
BITMAP
7880
FF80
FF80
8F00
ENDCHAR
STARTCHAR Agrave
ENCODING 192
SWIDTH 507 0
DWIDTH 10 0
BBX 9 21 0 0
BITMAP
3800
1C00
0C00
0000
3E00
3E00
3E00
3600
3600
3600
7700
7700
7700
6300
6300
7F00
7F00
FF80
E380
E380
E380
ENDCHAR
STARTCHAR Aacute
ENCODING 193
SWIDTH 507 0
DWIDTH 11 0
BBX 11 20 0 0
BITMAP
0700
0E00
0C00
3F00
3F00
3F80
3F80
3F80
7F80
7B80
7B80
7BC0
7BC0
7BC0
7FC0
FFC0
FFC0
FBC0
F3E0
F3E0
ENDCHAR
STARTCHAR Acircumflex
ENCODING 194
SWIDTH 507 0
DWIDTH 11 0
BBX 11 20 0 0
BITMAP
1E00
3F00
7380
3F00
3F00
3F80
3F80
3F80
7F80
7B80
7B80
7BC0
7BC0
7BC0
7FC0
FFC0
FFC0
FBC0
F3E0
F3E0
ENDCHAR
STARTCHAR Atilde
ENCODING 195
SWIDTH 507 0
DWIDTH 11 0
BBX 11 20 0 0
BITMAP
3D80
7F80
2300
3F00
3F00
3F80
3F80
3F80
7F80
7B80
7B80
7BC0
7BC0
7BC0
7FC0
FFC0
FFC0
FBC0
F3E0
F3E0
ENDCHAR
STARTCHAR Adieresis
ENCODING 196
SWIDTH 507 0
DWIDTH 11 0
BBX 11 20 0 0
BITMAP
3380
3380
3380
3F00
3F00
3F80
3F80
3F80
7F80
7B80
7B80
7BC0
7BC0
7BC0
7FC0
FFC0
FFC0
FBC0
F3E0
F3E0
ENDCHAR
STARTCHAR Aring
ENCODING 197
SWIDTH 507 0
DWIDTH 11 0
BBX 11 21 0 0
BITMAP
0E00
1A00
1200
0E00
3F00
3F00
3F80
3F80
3F80
7F80
7B80
7B80
7BC0
7BC0
7BC0
7FC0
FFC0
FFC0
FBC0
F3E0
F3E0
ENDCHAR
STARTCHAR AE
ENCODING 198
SWIDTH 713 0
DWIDTH 15 0
BBX 14 17 0 0
BITMAP
07F8
07F8
0FF8
0FC0
0DC0
0DC0
1DC0
1DF8
19F8
39F8
39C0
3FC0
7FC0
7FC0
71FC
E1FC
E1FC
ENDCHAR
STARTCHAR Ccedilla
ENCODING 199
SWIDTH 553 0
DWIDTH 12 0
BBX 9 21 1 -4
BITMAP
3E00
7F00
FF80
E380
E380
E380
E380
E000
E000
E380
E380
E380
E380
E380
FF00
7F00
3E00
0800
0E00
0600
3C00
ENDCHAR
STARTCHAR Egrave
ENCODING 200
SWIDTH 415 0
DWIDTH 9 0
BBX 7 21 1 0
BITMAP
E0
70
38
00
FC
FC
FC
E0
E0
E0
E0
FC
FC
FC
E0
E0
E0
E0
FE
FE
FE
ENDCHAR
STARTCHAR Eacute
ENCODING 201
SWIDTH 415 0
DWIDTH 9 0
BBX 7 20 1 0
BITMAP
1C
38
30
FE
FE
FE
FE
F0
F0
F0
FE
FE
FE
F0
F0
F0
F0
FE
FE
FE
ENDCHAR
STARTCHAR Ecircumflex
ENCODING 202
SWIDTH 415 0
DWIDTH 9 0
BBX 7 20 1 0
BITMAP
38
7C
EE
FE
FE
FE
FE
F0
F0
F0
FE
FE
FE
F0
F0
F0
F0
FE
FE
FE
ENDCHAR
STARTCHAR Edieresis
ENCODING 203
SWIDTH 415 0
DWIDTH 9 0
BBX 7 20 1 0
BITMAP
CE
CE
CE
FE
FE
FE
FE
F0
F0
F0
FE
FE
FE
F0
F0
F0
F0
FE
FE
FE
ENDCHAR
STARTCHAR Igrave
ENCODING 204
SWIDTH 288 0
DWIDTH 6 0
BBX 4 21 0 0
BITMAP
E0
70
30
00
70
70
70
70
70
70
70
70
70
70
70
70
70
70
70
70
70
ENDCHAR
STARTCHAR Iacute
ENCODING 205
SWIDTH 288 0
DWIDTH 6 0
BBX 5 20 1 0
BITMAP
38
70
E0
F0
F0
F0
F0
F0
F0
F0
F0
F0
F0
F0
F0
F0
F0
F0
F0
F0
ENDCHAR
STARTCHAR Icircumflex
ENCODING 206
SWIDTH 288 0
DWIDTH 6 0
BBX 8 20 -1 0
BITMAP
3C
7E
E7
3C
3C
3C
3C
3C
3C
3C
3C
3C
3C
3C
3C
3C
3C
3C
3C
3C
ENDCHAR
STARTCHAR Idieresis
ENCODING 207
SWIDTH 288 0
DWIDTH 6 0
BBX 8 20 -1 0
BITMAP
E7
E7
E7
3C
3C
3C
3C
3C
3C
3C
3C
3C
3C
3C
3C
3C
3C
3C
3C
3C
ENDCHAR
STARTCHAR Eth
ENCODING 208
SWIDTH 558 0
DWIDTH 12 0
BBX 10 17 0 0
BITMAP
7F00
7F80
7FC0
71C0
71C0
71C0
F9C0
F9C0
71C0
71C0
71C0
71C0
71C0
71C0
7FC0
7FC0
7F80
ENDCHAR
STARTCHAR Ntilde
ENCODING 209
SWIDTH 541 0
DWIDTH 11 0
BBX 10 20 1 0
BITMAP
7900
7F80
4700
E3C0
F3C0
F3C0
F3C0
FBC0
FBC0
FBC0
FFC0
FFC0
FFC0
EFC0
EFC0
EFC0
E7C0
E7C0
E7C0
E3C0
ENDCHAR
STARTCHAR Ograve
ENCODING 210
SWIDTH 546 0
DWIDTH 11 0
BBX 8 21 1 0
BITMAP
38
18
0C
00
3C
7E
FF
E7
E7
E7
E7
E7
E7
E7
E7
E7
E7
E7
FF
7E
3C
ENDCHAR
STARTCHAR Oacute
ENCODING 211
SWIDTH 546 0
DWIDTH 11 0
BBX 10 20 1 0
BITMAP
0F00
0E00
1800
3E00
7F80
FF80
F7C0
F7C0
F7C0
F7C0
F7C0
F7C0
F7C0
F7C0
F7C0
F7C0
F7C0
F780
7F80
3F00
ENDCHAR
STARTCHAR Ocircumflex
ENCODING 212
SWIDTH 546 0
DWIDTH 11 0
BBX 10 20 1 0
BITMAP
1E00
3F00
7300
3E00
7F80
FF80
F7C0
F7C0
F7C0
F7C0
F7C0
F7C0
F7C0
F7C0
F7C0
F7C0
F7C0
F780
7F80
3F00
ENDCHAR
STARTCHAR Otilde
ENCODING 213
SWIDTH 546 0
DWIDTH 11 0
BBX 10 20 1 0
BITMAP
7D00
7F80
4700
3E00
7F80
FF80
F7C0
F7C0
F7C0
F7C0
F7C0
F7C0
F7C0
F7C0
F7C0
F7C0
F7C0
F780
7F80
3F00
ENDCHAR
STARTCHAR Odieresis
ENCODING 214
SWIDTH 546 0
DWIDTH 11 0
BBX 10 20 1 0
BITMAP
7300
7300
7300
3E00
7F80
FF80
F7C0
F7C0
F7C0
F7C0
F7C0
F7C0
F7C0
F7C0
F7C0
F7C0
F7C0
F780
7F80
3F00
ENDCHAR
STARTCHAR multiply
ENCODING 215
SWIDTH 533 0
DWIDTH 11 0
BBX 9 9 1 4
BITMAP
4100
E380
7700
3E00
1C00
3E00
7700
E380
4100
ENDCHAR
STARTCHAR Oslash
ENCODING 216
SWIDTH 546 0
DWIDTH 11 0
BBX 10 17 0 0
BITMAP
1F40
3FC0
7F80
7380
7380
7380
7380
7780
7B80
7B80
7380
7380
7380
7380
7F80
FF00
BE00
ENDCHAR
STARTCHAR Ugrave
ENCODING 217
SWIDTH 546 0
DWIDTH 11 0
BBX 8 21 1 0
BITMAP
38
18
0C
00
E7
E7
E7
E7
E7
E7
E7
E7
E7
E7
E7
E7
E7
E7
FF
7E
3C
ENDCHAR
STARTCHAR Uacute
ENCODING 218
SWIDTH 546 0
DWIDTH 11 0
BBX 10 20 1 0
BITMAP
0F00
0E00
1800
F7C0
F7C0
F7C0
F7C0
F7C0
F7C0
F7C0
F7C0
F7C0
F7C0
F7C0
F7C0
F7C0
F7C0
FF80
7F80
3F00
ENDCHAR
STARTCHAR Ucircumflex
ENCODING 219
SWIDTH 546 0
DWIDTH 11 0
BBX 10 20 1 0
BITMAP
1E00
3F00
7300
F7C0
F7C0
F7C0
F7C0
F7C0
F7C0
F7C0
F7C0
F7C0
F7C0
F7C0
F7C0
F7C0
F7C0
FF80
7F80
3F00
ENDCHAR
STARTCHAR Udieresis
ENCODING 220
SWIDTH 546 0
DWIDTH 11 0
BBX 10 20 1 0
BITMAP
7300
7300
7300
F7C0
F7C0
F7C0
F7C0
F7C0
F7C0
F7C0
F7C0
F7C0
F7C0
F7C0
F7C0
F7C0
F7C0
FF80
7F80
3F00
ENDCHAR
STARTCHAR Yacute
ENCODING 221
SWIDTH 473 0
DWIDTH 10 0
BBX 10 20 0 0
BITMAP
0700
0E00
1C00
F3C0
F3C0
F380
7780
7F80
7F80
3F00
3F00
3F00
3E00
1E00
1E00
1E00
1E00
1E00
1E00
1E00
ENDCHAR
STARTCHAR Thorn
ENCODING 222
SWIDTH 501 0
DWIDTH 11 0
BBX 9 17 1 0
BITMAP
E000
E000
E000
FE00
FF00
FF80
E380
E380
E380
E380
E380
FF80
FF80
FE00
E000
E000
E000
ENDCHAR
STARTCHAR germandbls
ENCODING 223
SWIDTH 550 0
DWIDTH 12 0
BBX 10 17 1 0
BITMAP
3F00
7F80
E1C0
E1C0
E1C0
E780
E780
E1C0
E1C0
E1C0
E1C0
E1C0
E1C0
E1C0
E1C0
EF80
EF00
ENDCHAR
STARTCHAR agrave
ENCODING 224
SWIDTH 503 0
DWIDTH 11 0
BBX 9 18 1 0
BITMAP
3800
1C00
0C00
0000
3E00
7F00
E380
E380
E380
E380
0F80
7F80
F380
E380
E380
E380
FF80
7B80
ENDCHAR
STARTCHAR aacute
ENCODING 225
SWIDTH 503 0
DWIDTH 11 0
BBX 9 17 1 0
BITMAP
0E00
1C00
0000
3E00
FF00
FF80
E780
E780
E780
3F80
FF80
F780
E780
E780
F780
FF80
F780
ENDCHAR
STARTCHAR acircumflex
ENCODING 226
SWIDTH 503 0
DWIDTH 11 0
BBX 9 17 1 0
BITMAP
3E00
7600
0100
3E00
FF00
FF80
E780
E780
E780
3F80
FF80
F780
E780
E780
F780
FF80
F780
ENDCHAR
STARTCHAR atilde
ENCODING 227
SWIDTH 503 0
DWIDTH 11 0
BBX 9 18 1 0
BITMAP
2000
7F80
FF00
0000
3E00
FF00
FF80
E780
E780
E780
3F80
FF80
F780
E780
E780
F780
FF80
F780
ENDCHAR
STARTCHAR adieresis
ENCODING 228
SWIDTH 503 0
DWIDTH 11 0
BBX 9 17 1 0
BITMAP
6700
6700
0000
3E00
FF00
FF80
E780
E780
E780
3F80
FF80
F780
E780
E780
F780
FF80
F780
ENDCHAR
STARTCHAR aring
ENCODING 229
SWIDTH 503 0
DWIDTH 11 0
BBX 9 19 1 0
BITMAP
1800
3C00
2400
3C00
0000
3E00
FF00
FF80
E780
E780
E780
3F80
FF80
F780
E780
E780
F780
FF80
F780
ENDCHAR
STARTCHAR ae
ENCODING 230
SWIDTH 753 0
DWIDTH 16 0
BBX 14 14 1 0
BITMAP
3FF0
7FF8
E71C
E71C
E71C
0FFC
3FFC
F700
E71C
E71C
E71C
E71C
FFF8
79F0
ENDCHAR
STARTCHAR ccedilla
ENCODING 231
SWIDTH 494 0
DWIDTH 10 0
BBX 8 18 1 -4
BITMAP
3C
7E
E7
E7
E7
E0
E0
E0
E7
E7
E7
E7
7E
3C
10
1C
0C
78
ENDCHAR
STARTCHAR egrave
ENCODING 232
SWIDTH 511 0
DWIDTH 11 0
BBX 9 18 1 0
BITMAP
3800
1C00
0E00
0000
3E00
7F00
E380
E380
E380
FF80
FF80
E000
E380
E380
E380
E380
7F00
3E00
ENDCHAR
STARTCHAR eacute
ENCODING 233
SWIDTH 511 0
DWIDTH 11 0
BBX 9 17 1 0
BITMAP
0E00
1C00
0000
3C00
7F00
FF80
F780
F780
FF80
FF80
F000
F780
F780
F780
F780
FF00
7E00
ENDCHAR
STARTCHAR ecircumflex
ENCODING 234
SWIDTH 511 0
DWIDTH 11 0
BBX 9 17 1 0
BITMAP
3E00
7700
0000
3C00
7F00
FF80
F780
F780
FF80
FF80
F000
F780
F780
F780
F780
FF00
7E00
ENDCHAR
STARTCHAR edieresis
ENCODING 235
SWIDTH 511 0
DWIDTH 11 0
BBX 9 17 1 0
BITMAP
6700
6700
0000
3C00
7F00
FF80
F780
F780
FF80
FF80
F000
F780
F780
F780
F780
FF00
7E00
ENDCHAR
STARTCHAR igrave
ENCODING 236
SWIDTH 273 0
DWIDTH 5 0
BBX 4 18 0 0
BITMAP
E0
60
30
00
70
70
70
70
70
70
70
70
70
70
70
70
70
70
ENDCHAR
STARTCHAR iacute
ENCODING 237
SWIDTH 273 0
DWIDTH 6 0
BBX 5 17 1 0
BITMAP
78
60
80
F0
F0
F0
F0
F0
F0
F0
F0
F0
F0
F0
F0
F0
F0
ENDCHAR
STARTCHAR icircumflex
ENCODING 238
SWIDTH 273 0
DWIDTH 6 0
BBX 7 17 -1 0
BITMAP
3C
7E
80
3C
3C
3C
3C
3C
3C
3C
3C
3C
3C
3C
3C
3C
3C
ENDCHAR
STARTCHAR idieresis
ENCODING 239
SWIDTH 273 0
DWIDTH 6 0
BBX 7 17 -1 0
BITMAP
E6
E6
00
3C
3C
3C
3C
3C
3C
3C
3C
3C
3C
3C
3C
3C
3C
ENDCHAR
STARTCHAR eth
ENCODING 240
SWIDTH 511 0
DWIDTH 11 0
BBX 9 17 1 0
BITMAP
1F00
3E00
0700
3F00
7F80
E380
E380
E380
E380
E380
E380
E380
E380
E380
E380
7F00
3E00
ENDCHAR
STARTCHAR ntilde
ENCODING 241
SWIDTH 522 0
DWIDTH 11 0
BBX 9 18 1 0
BITMAP
2000
7F80
FF00
0000
F700
FF80
FF80
F780
F780
F780
F780
F780
F780
F780
F780
F780
F780
F780
ENDCHAR
STARTCHAR ograve
ENCODING 242
SWIDTH 511 0
DWIDTH 11 0
BBX 9 18 1 0
BITMAP
3800
1C00
0E00
0000
3E00
7F00
E380
E380
E380
E380
E380
E380
E380
E380
E380
E380
7F00
3E00
ENDCHAR
STARTCHAR oacute
ENCODING 243
SWIDTH 511 0
DWIDTH 11 0
BBX 9 17 1 0
BITMAP
0E00
1C00
0000
3C00
7F00
FF80
F780
F780
F780
F780
F780
F780
F780
F780
F780
FF00
7E00
ENDCHAR
STARTCHAR ocircumflex
ENCODING 244
SWIDTH 511 0
DWIDTH 11 0
BBX 9 17 1 0
BITMAP
3E00
7700
0000
3C00
7F00
FF80
F780
F780
F780
F780
F780
F780
F780
F780
F780
FF00
7E00
ENDCHAR
STARTCHAR otilde
ENCODING 245
SWIDTH 511 0
DWIDTH 11 0
BBX 9 18 1 0
BITMAP
2000
7F80
FF00
0000
3C00
7F00
FF80
F780
F780
F780
F780
F780
F780
F780
F780
F780
FF00
7E00
ENDCHAR
STARTCHAR odieresis
ENCODING 246
SWIDTH 511 0
DWIDTH 11 0
BBX 9 17 1 0
BITMAP
6700
6700
0000
3C00
7F00
FF80
F780
F780
F780
F780
F780
F780
F780
F780
F780
FF00
7E00
ENDCHAR
STARTCHAR divide
ENCODING 247
SWIDTH 533 0
DWIDTH 11 0
BBX 9 11 1 3
BITMAP
1C00
1C00
1C00
0000
FF80
FF80
FF80
0000
1C00
1C00
1C00
ENDCHAR
STARTCHAR oslash
ENCODING 248
SWIDTH 511 0
DWIDTH 11 0
BBX 9 14 1 0
BITMAP
3F80
7F80
E380
E380
E380
E780
EB80
EB80
F380
E380
E380
E380
FF00
FE00
ENDCHAR
STARTCHAR ugrave
ENCODING 249
SWIDTH 522 0
DWIDTH 11 0
BBX 9 18 1 0
BITMAP
3800
1C00
0E00
0000
E380
E380
E380
E380
E380
E380
E380
E380
E380
E380
E380
E380
FF80
7B80
ENDCHAR
STARTCHAR uacute
ENCODING 250
SWIDTH 522 0
DWIDTH 11 0
BBX 9 17 1 0
BITMAP
0E00
1C00
0000
F780
F780
F780
F780
F780
F780
F780
F780
F780
F780
F780
F780
FF80
FF80
ENDCHAR
STARTCHAR ucircumflex
ENCODING 251
SWIDTH 522 0
DWIDTH 11 0
BBX 9 17 1 0
BITMAP
3E00
7700
0000
F780
F780
F780
F780
F780
F780
F780
F780
F780
F780
F780
F780
FF80
FF80
ENDCHAR
STARTCHAR udieresis
ENCODING 252
SWIDTH 522 0
DWIDTH 11 0
BBX 9 17 1 0
BITMAP
7700
7700
0000
F780
F780
F780
F780
F780
F780
F780
F780
F780
F780
F780
F780
FF80
FF80
ENDCHAR
STARTCHAR yacute
ENCODING 253
SWIDTH 448 0
DWIDTH 9 0
BBX 9 19 0 -2
BITMAP
0F00
0C00
1000
F380
F380
F380
F780
7780
7780
7F80
7F80
7F00
3F00
3F00
3F00
3F00
3F00
7E00
7C00
ENDCHAR
STARTCHAR thorn
ENCODING 254
SWIDTH 519 0
DWIDTH 11 0
BBX 9 19 1 -2
BITMAP
E000
E000
E000
EF00
FF80
E380
E380
E380
E380
E380
E380
E380
E380
E380
E380
FF80
EF00
E000
E000
ENDCHAR
STARTCHAR ydieresis
ENCODING 255
SWIDTH 448 0
DWIDTH 9 0
BBX 9 19 0 -2
BITMAP
7300
7300
0000
F380
F380
F380
F780
7780
7780
7F80
7F80
7F00
3F00
3F00
3F00
3F00
3F00
7E00
7C00
ENDCHAR
STARTCHAR Amacron
ENCODING 256
SWIDTH 507 0
DWIDTH 11 0
BBX 11 19 0 0
BITMAP
7F80
7F80
3F00
3F00
3F80
3F80
3F80
7F80
7B80
7B80
7BC0
7BC0
7BC0
7FC0
FFC0
FFC0
FBC0
F3E0
F3E0
ENDCHAR
STARTCHAR amacron
ENCODING 257
SWIDTH 503 0
DWIDTH 11 0
BBX 9 16 1 0
BITMAP
FF80
0000
3E00
FF00
FF80
E780
E780
E780
3F80
FF80
F780
E780
E780
F780
FF80
F780
ENDCHAR
STARTCHAR Abreve
ENCODING 258
SWIDTH 507 0
DWIDTH 11 0
BBX 11 20 0 0
BITMAP
3300
1F00
0E00
3F00
3F00
3F80
3F80
3F80
7F80
7B80
7B80
7BC0
7BC0
7BC0
7FC0
FFC0
FFC0
FBC0
F3E0
F3E0
ENDCHAR
STARTCHAR abreve
ENCODING 259
SWIDTH 503 0
DWIDTH 11 0
BBX 9 18 1 0
BITMAP
6600
6600
3C00
0000
3E00
FF00
FF80
E780
E780
E780
3F80
FF80
F780
E780
E780
F780
FF80
F780
ENDCHAR
STARTCHAR Aogonek
ENCODING 260
SWIDTH 507 0
DWIDTH 10 0
BBX 10 20 0 -3
BITMAP
3E00
3E00
7F00
7700
7700
7700
7700
7700
7700
6300
6300
7F00
FF80
FF80
E380
E380
E380
0300
0300
03C0
ENDCHAR
STARTCHAR aogonek
ENCODING 261
SWIDTH 503 0
DWIDTH 11 0
BBX 10 17 1 -3
BITMAP
7F00
FF00
E380
E380
E380
0F80
3F80
FB80
E380
E380
E380
E380
FF80
7B80
0300
0300
03C0
ENDCHAR
STARTCHAR Cacute
ENCODING 262
SWIDTH 553 0
DWIDTH 12 0
BBX 10 20 1 0
BITMAP
0F00
0E00
1800
3E00
7F80
FF80
F3C0
F3C0
F3C0
F3C0
F3C0
F000
F000
F3C0
F3C0
F3C0
F3C0
FFC0
FF80
3F00
ENDCHAR
STARTCHAR cacute
ENCODING 263
SWIDTH 494 0
DWIDTH 10 0
BBX 9 17 1 0
BITMAP
0E00
1C00
0000
3C00
7F00
FF00
F780
F780
F780
F000
F000
F780
F780
F780
F780
FF00
7E00
ENDCHAR
STARTCHAR Ccircumflex
ENCODING 264
SWIDTH 553 0
DWIDTH 12 0
BBX 10 20 1 0
BITMAP
1E00
3F00
7300
3E00
7F80
FF80
F3C0
F3C0
F3C0
F3C0
F3C0
F000
F000
F3C0
F3C0
F3C0
F3C0
FFC0
FF80
3F00
ENDCHAR
STARTCHAR ccircumflex
ENCODING 265
SWIDTH 494 0
DWIDTH 10 0
BBX 9 17 1 0
BITMAP
3C00
7E00
0100
3C00
7F00
FF00
F780
F780
F780
F000
F000
F780
F780
F780
F780
FF00
7E00
ENDCHAR
STARTCHAR Cdot
ENCODING 266
SWIDTH 553 0
DWIDTH 12 0
BBX 10 20 1 0
BITMAP
1C00
1C00
1C00
3E00
7F80
FF80
F3C0
F3C0
F3C0
F3C0
F3C0
F000
F000
F3C0
F3C0
F3C0
F3C0
FFC0
FF80
3F00
ENDCHAR
STARTCHAR cdot
ENCODING 267
SWIDTH 494 0
DWIDTH 10 0
BBX 9 17 1 0
BITMAP
1800
1800
0000
3C00
7F00
FF00
F780
F780
F780
F000
F000
F780
F780
F780
F780
FF00
7E00
ENDCHAR
STARTCHAR Ccaron
ENCODING 268
SWIDTH 553 0
DWIDTH 12 0
BBX 10 20 1 0
BITMAP
7300
3F00
1E00
3E00
7F80
FF80
F3C0
F3C0
F3C0
F3C0
F3C0
F000
F000
F3C0
F3C0
F3C0
F3C0
FFC0
FF80
3F00
ENDCHAR
STARTCHAR ccaron
ENCODING 269
SWIDTH 494 0
DWIDTH 10 0
BBX 9 17 1 0
BITMAP
7700
3E00
0000
3C00
7F00
FF00
F780
F780
F780
F000
F000
F780
F780
F780
F780
FF00
7E00
ENDCHAR
STARTCHAR Dcaron
ENCODING 270
SWIDTH 552 0
DWIDTH 12 0
BBX 10 20 1 0
BITMAP
7700
3E00
1C00
FC00
FF80
FFC0
F7C0
F3C0
F3C0
F3C0
F3C0
F3C0
F3C0
F3C0
F3C0
F3C0
F7C0
FFC0
FF80
FF80
ENDCHAR
STARTCHAR dcaron
ENCODING 271
SWIDTH 660 0
DWIDTH 14 0
BBX 13 17 1 0
BITMAP
07B8
07B8
07B8
7790
FFB0
FF80
F780
F780
F780
F780
F780
F780
F780
F780
F780
FF80
F780
ENDCHAR
STARTCHAR Eth.dup1
ENCODING 272
SWIDTH 558 0
DWIDTH 12 0
BBX 10 17 0 0
BITMAP
7F00
7F80
7FC0
71C0
71C0
71C0
F9C0
F9C0
71C0
71C0
71C0
71C0
71C0
71C0
7FC0
7FC0
7F80
ENDCHAR
STARTCHAR dmacron
ENCODING 273
SWIDTH 519 0
DWIDTH 11 0
BBX 10 17 1 0
BITMAP
0380
3FC0
3FC0
0380
7B80
FF80
E380
E380
E380
E380
E380
E380
E380
E380
E380
FF80
7B80
ENDCHAR
STARTCHAR Emacron
ENCODING 274
SWIDTH 415 0
DWIDTH 9 0
BBX 9 19 0 0
BITMAP
FF80
FF80
7F00
7F00
7F00
7F00
7800
7800
7800
7F00
7F00
7F00
7800
7800
7800
7800
7F00
7F00
7F00
ENDCHAR
STARTCHAR emacron
ENCODING 275
SWIDTH 511 0
DWIDTH 11 0
BBX 9 16 1 0
BITMAP
FF00
0000
3C00
7F00
FF80
F780
F780
FF80
FF80
F000
F780
F780
F780
F780
FF00
7E00
ENDCHAR
STARTCHAR Ebreve
ENCODING 276
SWIDTH 415 0
DWIDTH 9 0
BBX 7 20 1 0
BITMAP
64
7C
38
FE
FE
FE
FE
F0
F0
F0
FE
FE
FE
F0
F0
F0
F0
FE
FE
FE
ENDCHAR
STARTCHAR ebreve
ENCODING 277
SWIDTH 511 0
DWIDTH 11 0
BBX 9 18 1 0
BITMAP
6600
6600
3C00
0000
3C00
7F00
FF80
F780
F780
FF80
FF80
F000
F780
F780
F780
F780
FF00
7E00
ENDCHAR
STARTCHAR Edot
ENCODING 278
SWIDTH 415 0
DWIDTH 9 0
BBX 7 20 1 0
BITMAP
38
38
38
FE
FE
FE
FE
F0
F0
F0
FE
FE
FE
F0
F0
F0
F0
FE
FE
FE
ENDCHAR
STARTCHAR edot
ENCODING 279
SWIDTH 511 0
DWIDTH 11 0
BBX 9 17 1 0
BITMAP
1800
1800
0000
3C00
7F00
FF80
F780
F780
FF80
FF80
F000
F780
F780
F780
F780
FF00
7E00
ENDCHAR
STARTCHAR Eogonek
ENCODING 280
SWIDTH 415 0
DWIDTH 9 0
BBX 8 20 1 -3
BITMAP
FC
FC
FC
E0
E0
E0
E0
FC
FC
FC
E0
E0
E0
E0
FE
FE
FE
0C
0C
0F
ENDCHAR
STARTCHAR eogonek
ENCODING 281
SWIDTH 511 0
DWIDTH 11 0
BBX 9 17 1 -3
BITMAP
3E00
7F00
E380
E380
E380
FF80
FF80
E000
E380
E380
E380
E380
7F00
3F00
1800
1000
1E00
ENDCHAR
STARTCHAR Ecaron
ENCODING 282
SWIDTH 415 0
DWIDTH 9 0
BBX 7 20 1 0
BITMAP
EE
7C
38
FE
FE
FE
FE
F0
F0
F0
FE
FE
FE
F0
F0
F0
F0
FE
FE
FE
ENDCHAR
STARTCHAR ecaron
ENCODING 283
SWIDTH 511 0
DWIDTH 11 0
BBX 9 17 1 0
BITMAP
7700
3E00
0000
3C00
7F00
FF80
F780
F780
FF80
FF80
F000
F780
F780
F780
F780
FF00
7E00
ENDCHAR
STARTCHAR Gcircumflex
ENCODING 284
SWIDTH 551 0
DWIDTH 12 0
BBX 10 20 1 0
BITMAP
1E00
3F00
7300
3E00
7F80
FF80
F7C0
F7C0
F7C0
F7C0
F000
F7C0
F7C0
F7C0
F3C0
F3C0
F3C0
F7C0
FFC0
7DC0
ENDCHAR
STARTCHAR gcircumflex
ENCODING 285
SWIDTH 518 0
DWIDTH 11 0
BBX 9 19 1 -2
BITMAP
3E00
7700
0000
7780
FF80
FF80
F780
F780
F780
F780
F780
F780
F780
FF80
FF80
0780
F780
FF80
7F00
ENDCHAR
STARTCHAR Gbreve
ENCODING 286
SWIDTH 551 0
DWIDTH 12 0
BBX 10 20 1 0
BITMAP
3300
3E00
1C00
3E00
7F80
FF80
F7C0
F7C0
F7C0
F7C0
F000
F7C0
F7C0
F7C0
F3C0
F3C0
F3C0
FFC0
FFC0
7DC0
ENDCHAR
STARTCHAR gbreve
ENCODING 287
SWIDTH 518 0
DWIDTH 11 0
BBX 9 20 1 -2
BITMAP
2200
3600
3E00
0000
7780
FF80
FF80
F780
F780
F780
F780
F780
F780
F780
FF80
FF80
0780
F780
FF80
7F00
ENDCHAR
STARTCHAR Gdot
ENCODING 288
SWIDTH 551 0
DWIDTH 12 0
BBX 10 20 1 0
BITMAP
1C00
1C00
1C00
3E00
7F80
FF80
F7C0
F7C0
F7C0
F7C0
F000
F7C0
F7C0
F7C0
F3C0
F3C0
F3C0
F7C0
FFC0
7DC0
ENDCHAR
STARTCHAR gdot
ENCODING 289
SWIDTH 518 0
DWIDTH 11 0
BBX 9 19 1 -2
BITMAP
1C00
1C00
0000
7780
FF80
FF80
F780
F780
F780
F780
F780
F780
F780
FF80
FF80
0780
F780
FF80
7F00
ENDCHAR
STARTCHAR Gcedilla
ENCODING 290
SWIDTH 551 0
DWIDTH 12 0
BBX 10 23 1 -6
BITMAP
3E00
7F80
FF80
F7C0
F7C0
F7C0
F7C0
F000
F7C0
F7C0
F7C0
F3C0
F3C0
F3C0
FFC0
FFC0
7DC0
0000
1C00
1C00
0C00
1800
1000
ENDCHAR
STARTCHAR gcedilla
ENCODING 291
SWIDTH 518 0
DWIDTH 11 0
BBX 9 22 1 -2
BITMAP
0400
0C00
1C00
1C00
1C00
0000
7780
FF80
FF80
F780
F780
F780
F780
F780
F780
F780
FF80
FF80
0780
F780
FF80
7F00
ENDCHAR
STARTCHAR Hcircumflex
ENCODING 292
SWIDTH 555 0
DWIDTH 12 0
BBX 10 20 1 0
BITMAP
1E00
3F00
7300
F7C0
F7C0
F7C0
F7C0
F7C0
F7C0
FFC0
FFC0
FFC0
FFC0
F7C0
F7C0
F7C0
F7C0
F7C0
F7C0
F7C0
ENDCHAR
STARTCHAR hcircumflex
ENCODING 293
SWIDTH 523 0
DWIDTH 11 0
BBX 9 20 1 0
BITMAP
1E00
3E00
7700
F000
F000
F000
F700
FF80
FF80
F780
F780
F780
F780
F780
F780
F780
F780
F780
F780
F780
ENDCHAR
STARTCHAR Hbar
ENCODING 294
SWIDTH 555 0
DWIDTH 12 0
BBX 11 17 0 0
BITMAP
71C0
71C0
71C0
FFE0
FFE0
71C0
71C0
7FC0
7FC0
7FC0
71C0
71C0
71C0
71C0
71C0
71C0
71C0
ENDCHAR
STARTCHAR hbar
ENCODING 295
SWIDTH 523 0
DWIDTH 11 0
BBX 10 17 0 0
BITMAP
F800
F800
7000
7780
7FC0
71C0
71C0
71C0
71C0
71C0
71C0
71C0
71C0
71C0
71C0
71C0
71C0
ENDCHAR
STARTCHAR Itilde
ENCODING 296
SWIDTH 288 0
DWIDTH 6 0
BBX 8 20 -1 0
BITMAP
7B
FF
46
3C
3C
3C
3C
3C
3C
3C
3C
3C
3C
3C
3C
3C
3C
3C
3C
3C
ENDCHAR
STARTCHAR itilde
ENCODING 297
SWIDTH 273 0
DWIDTH 6 0
BBX 8 18 -1 0
BITMAP
20
FF
DF
00
3C
3C
3C
3C
3C
3C
3C
3C
3C
3C
3C
3C
3C
3C
ENDCHAR
STARTCHAR Imacron
ENCODING 298
SWIDTH 288 0
DWIDTH 6 0
BBX 8 19 -1 0
BITMAP
FF
FF
3C
3C
3C
3C
3C
3C
3C
3C
3C
3C
3C
3C
3C
3C
3C
3C
3C
ENDCHAR
STARTCHAR imacron
ENCODING 299
SWIDTH 273 0
DWIDTH 6 0
BBX 8 16 -1 0
BITMAP
FF
00
3C
3C
3C
3C
3C
3C
3C
3C
3C
3C
3C
3C
3C
3C
ENDCHAR
STARTCHAR Ibreve
ENCODING 300
SWIDTH 288 0
DWIDTH 6 0
BBX 6 20 0 0
BITMAP
CC
78
70
78
78
78
78
78
78
78
78
78
78
78
78
78
78
78
78
78
ENDCHAR
STARTCHAR ibreve
ENCODING 301
SWIDTH 273 0
DWIDTH 6 0
BBX 6 18 0 0
BITMAP
CC
CC
78
00
78
78
78
78
78
78
78
78
78
78
78
78
78
78
ENDCHAR
STARTCHAR Iogonek
ENCODING 302
SWIDTH 288 0
DWIDTH 6 0
BBX 4 20 1 -3
BITMAP
E0
E0
E0
E0
E0
E0
E0
E0
E0
E0
E0
E0
E0
E0
E0
E0
E0
C0
80
F0
ENDCHAR
STARTCHAR iogonek
ENCODING 303
SWIDTH 273 0
DWIDTH 5 0
BBX 4 17 1 -3
BITMAP
E0
E0
E0
E0
E0
E0
E0
E0
E0
E0
E0
E0
E0
E0
C0
C0
F0
ENDCHAR
STARTCHAR Idotaccent
ENCODING 304
SWIDTH 288 0
DWIDTH 6 0
BBX 4 20 1 0
BITMAP
60
60
60
F0
F0
F0
F0
F0
F0
F0
F0
F0
F0
F0
F0
F0
F0
F0
F0
F0
ENDCHAR
STARTCHAR dotlessi
ENCODING 305
SWIDTH 273 0
DWIDTH 5 0
BBX 3 14 1 0
BITMAP
E0
E0
E0
E0
E0
E0
E0
E0
E0
E0
E0
E0
E0
E0
ENDCHAR
STARTCHAR IJ
ENCODING 306
SWIDTH 625 0
DWIDTH 13 0
BBX 10 17 1 0
BITMAP
E1C0
E1C0
E1C0
E1C0
E1C0
E1C0
E1C0
E1C0
E1C0
E1C0
E1C0
E1C0
E1C0
E1C0
E7C0
E7C0
E780
ENDCHAR
STARTCHAR ij
ENCODING 307
SWIDTH 553 0
DWIDTH 12 0
BBX 10 19 1 -2
BITMAP
E1C0
E1C0
0000
E1C0
E1C0
E1C0
E1C0
E1C0
E1C0
E1C0
E1C0
E1C0
E1C0
E1C0
E1C0
E1C0
E1C0
07C0
0780
ENDCHAR
STARTCHAR Jcircumflex
ENCODING 308
SWIDTH 331 0
DWIDTH 7 0
BBX 8 20 0 0
BITMAP
3C
7E
E7
3C
3C
3C
3C
3C
3C
3C
3C
3C
3C
3C
3C
3C
3C
FC
FC
F8
ENDCHAR
STARTCHAR jcircumflex
ENCODING 309
SWIDTH 279 0
DWIDTH 6 0
BBX 7 20 -1 -2
BITMAP
38
7C
EE
00
38
38
38
38
38
38
38
38
38
38
38
38
38
38
78
70
ENDCHAR
STARTCHAR Kcedilla
ENCODING 310
SWIDTH 536 0
DWIDTH 11 0
BBX 10 22 1 -5
BITMAP
F3C0
F3C0
F780
F780
F780
F700
FF00
FF00
FF00
FF00
FF00
F780
F780
F780
F7C0
F3C0
F3C0
0000
0E00
0C00
0C00
0C00
ENDCHAR
STARTCHAR kcedilla
ENCODING 311
SWIDTH 478 0
DWIDTH 10 0
BBX 9 22 1 -5
BITMAP
F000
F000
F000
F780
F700
FF00
FF00
FE00
FE00
FE00
FE00
FF00
FF00
FF00
F700
F780
F780
0000
1C00
1C00
0C00
1800
ENDCHAR
STARTCHAR kgreenlandic
ENCODING 312
SWIDTH 517 0
DWIDTH 11 0
BBX 10 14 1 0
BITMAP
E3C0
E380
E780
EF00
EE00
FE00
FC00
FE00
FE00
EF00
EF00
E780
E780
E3C0
ENDCHAR
STARTCHAR Lacute
ENCODING 313
SWIDTH 380 0
DWIDTH 8 0
BBX 7 20 1 0
BITMAP
3C
30
60
F0
F0
F0
F0
F0
F0
F0
F0
F0
F0
F0
F0
F0
F0
FE
FE
FE
ENDCHAR
STARTCHAR lacute
ENCODING 314
SWIDTH 273 0
DWIDTH 6 0
BBX 5 20 1 0
BITMAP
38
70
E0
F0
F0
F0
F0
F0
F0
F0
F0
F0
F0
F0
F0
F0
F0
F0
F0
F0
ENDCHAR
STARTCHAR Lcedilla
ENCODING 315
SWIDTH 380 0
DWIDTH 8 0
BBX 7 23 1 -6
BITMAP
F0
F0
F0
F0
F0
F0
F0
F0
F0
F0
F0
F0
F0
F0
FE
FE
FE
00
38
38
18
30
20
ENDCHAR
STARTCHAR lcedilla
ENCODING 316
SWIDTH 273 0
DWIDTH 6 0
BBX 4 23 1 -6
BITMAP
F0
F0
F0
F0
F0
F0
F0
F0
F0
F0
F0
F0
F0
F0
F0
F0
F0
00
E0
E0
60
C0
80
ENDCHAR
STARTCHAR Lcaron
ENCODING 317
SWIDTH 432 0
DWIDTH 9 0
BBX 8 17 1 0
BITMAP
F7
F7
F7
F2
F6
F0
F0
F0
F0
F0
F0
F0
F0
F0
FE
FE
FE
ENDCHAR
STARTCHAR lcaron
ENCODING 318
SWIDTH 429 0
DWIDTH 9 0
BBX 8 17 1 0
BITMAP
F7
F7
F7
F2
F4
F0
F0
F0
F0
F0
F0
F0
F0
F0
F0
F0
F0
ENDCHAR
STARTCHAR Ldot
ENCODING 319
SWIDTH 425 0
DWIDTH 9 0
BBX 8 17 1 0
BITMAP
F0
F0
F0
F0
F7
F7
F7
F0
F0
F0
F0
F0
F0
F0
FE
FE
FE
ENDCHAR
STARTCHAR ldot
ENCODING 320
SWIDTH 425 0
DWIDTH 9 0
BBX 8 17 1 0
BITMAP
F0
F0
F0
F0
F7
F7
F7
F0
F0
F0
F0
F0
F0
F0
F0
F0
F0
ENDCHAR
STARTCHAR Lslash
ENCODING 321
SWIDTH 383 0
DWIDTH 8 0
BBX 7 17 0 0
BITMAP
70
70
70
70
70
70
7E
FE
F0
70
70
70
70
70
7E
7E
7E
ENDCHAR
STARTCHAR lslash
ENCODING 322
SWIDTH 285 0
DWIDTH 5 0
BBX 5 17 0 0
BITMAP
70
70
70
70
70
70
78
78
F0
F0
70
70
70
70
70
70
70
ENDCHAR
STARTCHAR Nacute
ENCODING 323
SWIDTH 541 0
DWIDTH 11 0
BBX 10 20 1 0
BITMAP
0E00
1C00
1800
E3C0
F3C0
F3C0
F3C0
FBC0
FBC0
FBC0
FFC0
FFC0
FFC0
EFC0
EFC0
EFC0
E7C0
E7C0
E7C0
E3C0
ENDCHAR
STARTCHAR nacute
ENCODING 324
SWIDTH 522 0
DWIDTH 11 0
BBX 9 17 1 0
BITMAP
1E00
1800
0000
F700
FF80
FF80
F780
F780
F780
F780
F780
F780
F780
F780
F780
F780
F780
ENDCHAR
STARTCHAR Ncedilla
ENCODING 325
SWIDTH 541 0
DWIDTH 11 0
BBX 10 23 1 -6
BITMAP
E3C0
F3C0
F3C0
F3C0
FBC0
FBC0
FBC0
FFC0
FFC0
FFC0
EFC0
EFC0
EFC0
E7C0
E7C0
E7C0
E3C0
0000
1C00
1C00
0C00
1800
1000
ENDCHAR
STARTCHAR ncedilla
ENCODING 326
SWIDTH 522 0
DWIDTH 11 0
BBX 9 19 1 -5
BITMAP
F700
FF80
FF80
F780
F780
F780
F780
F780
F780
F780
F780
F780
F780
F780
0000
1C00
1C00
0C00
1800
ENDCHAR
STARTCHAR Ncaron
ENCODING 327
SWIDTH 541 0
DWIDTH 11 0
BBX 10 20 1 0
BITMAP
7700
3E00
1C00
E3C0
F3C0
F3C0
F3C0
FBC0
FBC0
FBC0
FFC0
FFC0
FFC0
EFC0
EFC0
EFC0
E7C0
E7C0
E7C0
E3C0
ENDCHAR
STARTCHAR ncaron
ENCODING 328
SWIDTH 522 0
DWIDTH 11 0
BBX 9 17 1 0
BITMAP
7700
3E00
0000
F700
FF80
FF80
F780
F780
F780
F780
F780
F780
F780
F780
F780
F780
F780
ENDCHAR
STARTCHAR napostrophe
ENCODING 329
SWIDTH 654 0
DWIDTH 14 0
BBX 13 17 0 0
BITMAP
E000
E000
E000
5F70
DFF8
1FF8
1F78
1F78
1F78
1F78
1F78
1F78
1F78
1F78
1F78
1F78
1F78
ENDCHAR
STARTCHAR Eng
ENCODING 330
SWIDTH 553 0
DWIDTH 12 0
BBX 9 17 1 0
BITMAP
FE00
FF00
E380
E380
E380
E380
E380
E380
E380
E380
E380
E380
E380
E380
E380
E700
E600
ENDCHAR
STARTCHAR eng
ENCODING 331
SWIDTH 522 0
DWIDTH 11 0
BBX 9 16 1 -2
BITMAP
EF00
FF80
E380
E380
E380
E380
E380
E380
E380
E380
E380
E380
E380
E380
0F80
0F00
ENDCHAR
STARTCHAR Omacron
ENCODING 332
SWIDTH 546 0
DWIDTH 11 0
BBX 10 19 1 0
BITMAP
7F80
7F80
3E00
7F80
FF80
F7C0
F7C0
F7C0
F7C0
F7C0
F7C0
F7C0
F7C0
F7C0
F7C0
F7C0
F780
7F80
3F00
ENDCHAR
STARTCHAR omacron
ENCODING 333
SWIDTH 511 0
DWIDTH 11 0
BBX 9 16 1 0
BITMAP
FF00
0000
3C00
7F00
FF80
F780
F780
F780
F780
F780
F780
F780
F780
F780
FF00
7E00
ENDCHAR
STARTCHAR Obreve
ENCODING 334
SWIDTH 546 0
DWIDTH 11 0
BBX 10 20 1 0
BITMAP
3200
3E00
1C00
3E00
7F80
FF80
F7C0
F7C0
F7C0
F7C0
F7C0
F7C0
F7C0
F7C0
F7C0
F7C0
F7C0
F780
7F80
3F00
ENDCHAR
STARTCHAR obreve
ENCODING 335
SWIDTH 511 0
DWIDTH 11 0
BBX 9 18 1 0
BITMAP
6600
3600
3C00
0000
3C00
7F00
FF80
F780
F780
F780
F780
F780
F780
F780
F780
F780
FF00
7E00
ENDCHAR
STARTCHAR Odblacute
ENCODING 336
SWIDTH 546 0
DWIDTH 11 0
BBX 10 20 1 0
BITMAP
3B80
3300
6600
3E00
7F80
FF80
F7C0
F7C0
F7C0
F7C0
F7C0
F7C0
F7C0
F7C0
F7C0
F7C0
F7C0
F780
7F80
3F00
ENDCHAR
STARTCHAR odblacute
ENCODING 337
SWIDTH 511 0
DWIDTH 11 0
BBX 9 18 1 0
BITMAP
3B80
3300
6600
0000
3C00
7F00
FF80
F780
F780
F780
F780
F780
F780
F780
F780
F780
FF00
7E00
ENDCHAR
STARTCHAR OE
ENCODING 338
SWIDTH 688 0
DWIDTH 14 0
BBX 12 17 1 0
BITMAP
3FE0
7FE0
FFE0
E700
E700
E700
E700
E7E0
E7E0
E7E0
E700
E700
E700
E700
FFF0
7FF0
3FF0
ENDCHAR
STARTCHAR oe
ENCODING 339
SWIDTH 765 0
DWIDTH 16 0
BBX 14 14 1 0
BITMAP
3DF0
7FF8
E71C
E71C
E71C
E7FC
E7FC
E700
E71C
E71C
E71C
E71C
7FF8
3FF0
ENDCHAR
STARTCHAR Racute
ENCODING 340
SWIDTH 538 0
DWIDTH 11 0
BBX 10 21 1 0
BITMAP
0E00
1C00
3000
0000
FC00
FF80
FF80
F780
F780
F780
F780
FF80
FF00
FF80
F780
F780
F780
F7C0
F7C0
F7C0
F7C0
ENDCHAR
STARTCHAR racute
ENCODING 341
SWIDTH 357 0
DWIDTH 8 0
BBX 6 18 1 0
BITMAP
38
70
60
00
F4
FC
FC
FC
FC
F0
F0
F0
F0
F0
F0
F0
F0
F0
ENDCHAR
STARTCHAR Rcedilla
ENCODING 342
SWIDTH 538 0
DWIDTH 11 0
BBX 10 23 1 -6
BITMAP
FC00
FF80
FF80
F780
F780
F780
F780
FF80
FF00
FF80
F780
F780
F780
F7C0
F7C0
F7C0
F7C0
0000
1C00
1C00
0C00
1800
1000
ENDCHAR
STARTCHAR rcedilla
ENCODING 343
SWIDTH 357 0
DWIDTH 8 0
BBX 6 20 1 -6
BITMAP
F4
FC
FC
FC
FC
F0
F0
F0
F0
F0
F0
F0
F0
F0
00
E0
E0
60
C0
80
ENDCHAR
STARTCHAR Rcaron
ENCODING 344
SWIDTH 538 0
DWIDTH 11 0
BBX 10 20 1 0
BITMAP
7700
3E00
1C00
FC00
FF80
FF80
F780
F780
F780
F780
FF80
FF00
FF80
F780
F780
F780
F7C0
F7C0
F7C0
F7C0
ENDCHAR
STARTCHAR rcaron
ENCODING 345
SWIDTH 357 0
DWIDTH 8 0
BBX 7 17 0 0
BITMAP
EE
7C
00
7A
7E
7E
7E
7E
78
78
78
78
78
78
78
78
78
ENDCHAR
STARTCHAR Sacute
ENCODING 346
SWIDTH 517 0
DWIDTH 11 0
BBX 9 20 1 0
BITMAP
0E00
1C00
1800
3E00
FF00
FF80
F780
F780
F000
F800
FE00
7F00
3F80
0F80
F780
F780
F780
F780
FF80
7F00
ENDCHAR
STARTCHAR sacute
ENCODING 347
SWIDTH 470 0
DWIDTH 10 0
BBX 10 17 0 0
BITMAP
0F00
0C00
1000
3E00
7F80
7F80
F380
F380
7C00
7E00
3F80
0F80
7780
73C0
7380
7F80
3F00
ENDCHAR
STARTCHAR Scircumflex
ENCODING 348
SWIDTH 517 0
DWIDTH 11 0
BBX 9 20 1 0
BITMAP
3C00
7E00
E700
3E00
FF00
FF80
F780
F780
F000
F800
FE00
7F00
3F80
0F80
F780
F780
F780
F780
FF80
7F00
ENDCHAR
STARTCHAR scircumflex
ENCODING 349
SWIDTH 470 0
DWIDTH 10 0
BBX 10 17 0 0
BITMAP
3E00
3700
4000
3E00
7F80
7F80
F380
F380
7C00
7E00
3F80
0F80
7780
73C0
7380
7F80
3F00
ENDCHAR
STARTCHAR Scedilla
ENCODING 350
SWIDTH 517 0
DWIDTH 11 0
BBX 10 21 0 -4
BITMAP
3F00
7F80
FFC0
E1C0
E1C0
E000
F800
7E00
1F00
0780
03C0
E1C0
E1C0
E1C0
FFC0
7F80
1F00
0400
0700
0300
1E00
ENDCHAR
STARTCHAR scedilla
ENCODING 351
SWIDTH 470 0
DWIDTH 10 0
BBX 8 18 1 -4
BITMAP
3C
FE
E7
E7
F7
F8
7E
3F
1F
E7
E7
E7
7F
3E
08
0E
06
3C
ENDCHAR
STARTCHAR Scaron
ENCODING 352
SWIDTH 517 0
DWIDTH 11 0
BBX 9 20 1 0
BITMAP
7700
3E00
1C00
3E00
FF00
FF80
F780
F780
F000
F800
FE00
7F00
3F80
0F80
F780
F780
F780
F780
FF80
7F00
ENDCHAR
STARTCHAR scaron
ENCODING 353
SWIDTH 470 0
DWIDTH 10 0
BBX 10 17 0 0
BITMAP
7F00
1E00
0000
3E00
7F80
7F80
F380
F380
7C00
7E00
3F80
0F80
7780
73C0
7380
7F80
3F00
ENDCHAR
STARTCHAR Tcedilla
ENCODING 354
SWIDTH 460 0
DWIDTH 10 0
BBX 10 23 0 -6
BITMAP
FFC0
FFC0
FFC0
FFC0
1E00
1E00
1E00
1E00
1E00
1E00
1E00
1E00
1E00
1E00
1E00
1E00
1E00
0000
1C00
1C00
0C00
1800
1000
ENDCHAR
STARTCHAR tcedilla
ENCODING 355
SWIDTH 304 0
DWIDTH 6 0
BBX 6 20 0 -5
BITMAP
78
78
FC
FC
78
78
78
78
78
78
78
78
78
7C
3C
00
38
38
18
30
ENDCHAR
STARTCHAR Tcaron
ENCODING 356
SWIDTH 460 0
DWIDTH 10 0
BBX 10 20 0 0
BITMAP
7300
3E00
1E00
FFC0
FFC0
FFC0
FFC0
1E00
1E00
1E00
1E00
1E00
1E00
1E00
1E00
1E00
1E00
1E00
1E00
1E00
ENDCHAR
STARTCHAR tcaron
ENCODING 357
SWIDTH 460 0
DWIDTH 10 0
BBX 10 17 0 0
BITMAP
01C0
01C0
79C0
7980
FD00
FC00
7800
7800
7800
7800
7800
7800
7800
7800
7800
7C00
3C00
ENDCHAR
STARTCHAR Tbar
ENCODING 358
SWIDTH 460 0
DWIDTH 10 0
BBX 9 17 0 0
BITMAP
FF80
FF80
FF80
1C00
1C00
1C00
1C00
7F00
7F00
1C00
1C00
1C00
1C00
1C00
1C00
1C00
1C00
ENDCHAR
STARTCHAR tbar
ENCODING 359
SWIDTH 304 0
DWIDTH 6 0
BBX 6 15 0 0
BITMAP
70
70
FC
FC
70
70
FC
FC
70
70
70
70
70
7C
3C
ENDCHAR
STARTCHAR Utilde
ENCODING 360
SWIDTH 546 0
DWIDTH 11 0
BBX 10 20 1 0
BITMAP
7900
7F80
4700
F7C0
F7C0
F7C0
F7C0
F7C0
F7C0
F7C0
F7C0
F7C0
F7C0
F7C0
F7C0
F7C0
F7C0
FF80
7F80
3F00
ENDCHAR
STARTCHAR utilde
ENCODING 361
SWIDTH 522 0
DWIDTH 11 0
BBX 9 18 1 0
BITMAP
2000
7F80
FF00
0000
F780
F780
F780
F780
F780
F780
F780
F780
F780
F780
F780
F780
FF80
7780
ENDCHAR
STARTCHAR Umacron
ENCODING 362
SWIDTH 546 0
DWIDTH 11 0
BBX 10 19 1 0
BITMAP
7F80
7F80
F7C0
F7C0
F7C0
F7C0
F7C0
F7C0
F7C0
F7C0
F7C0
F7C0
F7C0
F7C0
F7C0
F7C0
FF80
7F80
3F00
ENDCHAR
STARTCHAR umacron
ENCODING 363
SWIDTH 522 0
DWIDTH 11 0
BBX 9 16 1 0
BITMAP
FF00
0000
F780
F780
F780
F780
F780
F780
F780
F780
F780
F780
F780
F780
FF80
FF80
ENDCHAR
STARTCHAR Ubreve
ENCODING 364
SWIDTH 546 0
DWIDTH 11 0
BBX 10 20 1 0
BITMAP
3300
3E00
1C00
F7C0
F7C0
F7C0
F7C0
F7C0
F7C0
F7C0
F7C0
F7C0
F7C0
F7C0
F7C0
F7C0
F7C0
FF80
7F80
3F00
ENDCHAR
STARTCHAR ubreve
ENCODING 365
SWIDTH 522 0
DWIDTH 11 0
BBX 9 18 1 0
BITMAP
2200
3600
3E00
0000
F780
F780
F780
F780
F780
F780
F780
F780
F780
F780
F780
F780
FF80
FF80
ENDCHAR
STARTCHAR Uring
ENCODING 366
SWIDTH 546 0
DWIDTH 11 0
BBX 10 21 1 0
BITMAP
1C00
1600
1600
1C00
F7C0
F7C0
F7C0
F7C0
F7C0
F7C0
F7C0
F7C0
F7C0
F7C0
F7C0
F7C0
F7C0
F7C0
FF80
7F80
3F00
ENDCHAR
STARTCHAR uring
ENCODING 367
SWIDTH 522 0
DWIDTH 11 0
BBX 9 19 1 0
BITMAP
1C00
3C00
3600
1C00
0000
F780
F780
F780
F780
F780
F780
F780
F780
F780
F780
F780
F780
FF80
FF80
ENDCHAR
STARTCHAR Udblacute
ENCODING 368
SWIDTH 546 0
DWIDTH 11 0
BBX 10 20 1 0
BITMAP
3B80
3300
6600
F7C0
F7C0
F7C0
F7C0
F7C0
F7C0
F7C0
F7C0
F7C0
F7C0
F7C0
F7C0
F7C0
F7C0
FF80
7F80
3F00
ENDCHAR
STARTCHAR udblacute
ENCODING 369
SWIDTH 522 0
DWIDTH 11 0
BBX 9 18 1 0
BITMAP
3B80
3300
6600
0000
F780
F780
F780
F780
F780
F780
F780
F780
F780
F780
F780
F780
FF80
FF80
ENDCHAR
STARTCHAR Uogonek
ENCODING 370
SWIDTH 546 0
DWIDTH 11 0
BBX 8 20 1 -3
BITMAP
E7
E7
E7
E7
E7
E7
E7
E7
E7
E7
E7
E7
E7
E7
FF
7E
7C
20
20
3C
ENDCHAR
STARTCHAR uogonek
ENCODING 371
SWIDTH 521 0
DWIDTH 11 0
BBX 11 17 1 -3
BITMAP
E380
E380
E380
E380
E380
E380
E380
E380
E380
E380
E380
E380
FF80
7B80
0180
0100
01E0
ENDCHAR
STARTCHAR Wcircumflex
ENCODING 372
SWIDTH 814 0
DWIDTH 17 0
BBX 17 20 0 0
BITMAP
01C000
03E000
077000
F3E780
F3E780
F3E780
F3EF80
FBEF80
7BEF80
7BEF00
7FEF00
7F6F00
7F7F00
7F7F00
7F7F00
7F7F00
3F7F00
3F7E00
3F3E00
3E3E00
ENDCHAR
STARTCHAR wcircumflex
ENCODING 373
SWIDTH 669 0
DWIDTH 14 0
BBX 14 17 0 0
BITMAP
0780
0FC0
1000
F79C
F7BC
F7BC
F7BC
F7BC
77BC
77B8
7FF8
7FF8
7FF8
7FF8
7EF8
7CF8
3CF8
ENDCHAR
STARTCHAR Ycircumflex
ENCODING 374
SWIDTH 473 0
DWIDTH 10 0
BBX 10 20 0 0
BITMAP
1E00
3F00
7380
F3C0
F3C0
F380
7780
7F80
7F80
3F00
3F00
3F00
3E00
1E00
1E00
1E00
1E00
1E00
1E00
1E00
ENDCHAR
STARTCHAR ycircumflex
ENCODING 375
SWIDTH 448 0
DWIDTH 9 0
BBX 9 19 0 -2
BITMAP
3E00
7700
0000
F380
F380
F380
F780
7780
7780
7F80
7F80
7F00
3F00
3F00
3F00
3F00
3F00
7E00
7C00
ENDCHAR
STARTCHAR Ydieresis
ENCODING 376
SWIDTH 473 0
DWIDTH 10 0
BBX 10 20 0 0
BITMAP
7380
7380
7380
F3C0
F3C0
F380
7780
7F80
7F80
3F00
3F00
3F00
3E00
1E00
1E00
1E00
1E00
1E00
1E00
1E00
ENDCHAR
STARTCHAR Zacute
ENCODING 377
SWIDTH 396 0
DWIDTH 8 0
BBX 8 20 0 0
BITMAP
1E
1C
30
7F
7F
7F
7F
1F
1F
1E
3E
3E
3C
7C
7C
78
F8
FF
FF
FF
ENDCHAR
STARTCHAR zacute
ENCODING 378
SWIDTH 351 0
DWIDTH 7 0
BBX 7 17 0 0
BITMAP
1C
38
00
FE
FE
FE
1E
1E
3C
3C
3C
78
78
F0
FE
FE
FE
ENDCHAR
STARTCHAR Zdot
ENCODING 379
SWIDTH 396 0
DWIDTH 8 0
BBX 8 20 0 0
BITMAP
1C
1C
1C
7F
7F
7F
7F
1F
1F
1E
3E
3E
3C
7C
7C
78
F8
FF
FF
FF
ENDCHAR
STARTCHAR zdot
ENCODING 380
SWIDTH 351 0
DWIDTH 7 0
BBX 7 17 0 0
BITMAP
38
38
00
FE
FE
FE
1E
1E
3C
3C
3C
78
78
F0
FE
FE
FE
ENDCHAR
STARTCHAR Zcaron
ENCODING 381
SWIDTH 396 0
DWIDTH 8 0
BBX 8 20 0 0
BITMAP
67
3E
3C
7F
7F
7F
7F
1F
1F
1E
3E
3E
3C
7C
7C
78
F8
FF
FF
FF
ENDCHAR
STARTCHAR zcaron
ENCODING 382
SWIDTH 351 0
DWIDTH 7 0
BBX 7 17 0 0
BITMAP
EE
7C
00
FE
FE
FE
1E
1E
3C
3C
3C
78
78
F0
FE
FE
FE
ENDCHAR
STARTCHAR longs
ENCODING 383
SWIDTH 288 0
DWIDTH 6 0
BBX 5 17 1 0
BITMAP
38
78
E0
E0
E0
E0
E0
E0
E0
E0
E0
E0
E0
E0
E0
E0
E0
ENDCHAR
ENDFONT
